<?xml version="1.0" encoding="iso-8859-1"?>
<!-- Generator: Adobe Illustrator 29.6.0, SVG Export Plug-In . SVG Version: 9.03 Build 0)  -->
<svg version="1.1" id="Layer_1" xmlns="http://www.w3.org/2000/svg" xmlns:xlink="http://www.w3.org/1999/xlink" x="0px" y="0px"
	 viewBox="0 0 300 172.9" style="enable-background:new 0 0 300 172.9;" xml:space="preserve">
<path d="M7.2,166.8v-17.7H0.8v-3.2h16.3v3.2h-6.3v17.7H7.1H7.2z M30.4,166.8v-9.5c0-2.4-1.2-3.1-3-3.1s-3.1,1-3.9,2v10.6h-3.3v-20.9
	h3.3v7.8c1-1.2,2.9-2.4,5.3-2.4s4.9,1.7,4.9,4.8v10.7L30.4,166.8L30.4,166.8z M37,159.2c0-4.4,3.2-7.9,7.7-7.9s7.4,3.4,7.4,8.2v0.8
	H40.5c0.3,2.3,1.9,4.2,4.8,4.2s3.2-0.6,4.3-1.7l1.5,2.2c-1.5,1.4-3.8,2.2-6.1,2.2c-4.6,0-7.9-3.2-7.9-8H37z M44.7,154
	c-2.8,0-4.1,2.2-4.2,4H49C49,156.2,47.7,154,44.7,154z M63.6,166.8v-20.9h14.3v3.2H67.3v5.4h10.4v3.2H67.3v5.8h10.6v3.2H63.6
	L63.6,166.8z M85.5,166.8l-6.2-15.1h3.5l4.4,11.3l4.4-11.3h3.5l-6.2,15.1h-3.5H85.5z M96.4,159.2c0-4.4,3.2-7.9,7.7-7.9
	s7.4,3.4,7.4,8.2v0.8H99.9c0.3,2.3,1.9,4.2,4.8,4.2s3.2-0.6,4.3-1.7l1.5,2.2c-1.5,1.4-3.8,2.2-6.1,2.2c-4.6,0-7.9-3.2-7.9-8H96.4z
	 M104,154c-2.8,0-4.1,2.2-4.2,4h8.5C108.3,156.2,107,154,104,154z M125,166.8v-9.5c0-2.4-1.2-3.1-3.1-3.1s-3.1,1-3.9,2v10.6h-3.3
	v-15.1h3.3v2c1-1.2,3-2.4,5.4-2.4s4.9,1.8,4.9,4.9v10.6H125z M133.2,163.3v-8.7h-2.5v-2.8h2.5v-4.1h3.3v4.1h3.1v2.8h-3.1v7.9
	c0,1,0.5,1.8,1.4,1.8s1.2-0.3,1.4-0.6l0.8,2.5c-0.6,0.5-1.6,1-3.1,1c-2.6,0-3.9-1.4-3.9-3.9H133.2z M149.8,156.4
	c0-6.5,4.8-10.8,11-10.8s6.8,2.2,8.4,4.7l-3.1,1.6c-1-1.8-3-3-5.3-3c-4.1,0-7.2,3.1-7.2,7.5s3.1,7.5,7.2,7.5s4.3-1.3,5.3-3l3.1,1.6
	c-1.6,2.5-4.2,4.7-8.4,4.7C154.6,167.2,149.8,162.8,149.8,156.4z M171,159.2c0-4.4,2.9-7.9,7.8-7.9s7.8,3.6,7.8,7.9s-2.9,8-7.8,8
	S171,163.6,171,159.2z M183.1,159.2c0-2.7-1.5-5-4.4-5s-4.4,2.3-4.4,5s1.6,5,4.4,5S183.1,161.9,183.1,159.2z M208.5,166.8v-9.9
	c0-1.6-0.7-2.7-2.5-2.7s-2.8,1-3.5,2v10.6h-3.3v-9.9c0-1.6-0.7-2.7-2.5-2.7s-2.8,1-3.5,2v10.6h-3.3v-15.1h3.3v2
	c0.7-0.9,2.6-2.4,4.9-2.4s3.6,1.1,4.1,2.8c0.8-1.3,2.8-2.8,5.1-2.8s4.4,1.5,4.4,4.6v10.9h-3.3L208.5,166.8z M219.3,164.7v7.9H216
	v-20.9h3.3v2.1c1.1-1.5,2.9-2.4,4.9-2.4c3.9,0,6.7,2.9,6.7,7.9s-2.8,8-6.7,8s-3.6-0.9-4.9-2.5V164.7z M227.5,159.2
	c0-2.9-1.7-5-4.3-5s-3.1,0.9-3.9,2v6c0.7,1.1,2.3,2.1,3.9,2.1c2.6,0,4.3-2.1,4.3-5V159.2z M243.4,166.8v-1.7c-1.1,1.3-2.9,2-4.9,2
	s-5.2-1.7-5.2-5s2.8-4.9,5.2-4.9s3.8,0.7,4.9,1.9v-2.3c0-1.8-1.5-2.8-3.5-2.8s-3.2,0.6-4.5,1.9l-1.4-2.3c1.8-1.7,3.9-2.4,6.4-2.4
	s6.3,1.4,6.3,5.4v10.1h-3.3V166.8z M243.4,163.3V161c-0.8-1-2.2-1.6-3.6-1.6s-3.3,1.1-3.3,2.7s1.4,2.7,3.3,2.7s2.8-0.5,3.6-1.6
	V163.3z M261.2,166.8v-9.5c0-2.4-1.2-3.1-3.1-3.1s-3.1,1-3.9,2v10.6h-3.3v-15.1h3.3v2c1-1.2,3-2.4,5.4-2.4s4.9,1.8,4.9,4.9v10.6
	H261.2z M268.6,169.8c0.3,0.2,0.9,0.3,1.3,0.3c1.1,0,1.8-0.3,2.2-1.3l0.8-1.7l-6.2-15.3h3.5l4.4,11.3l4.4-11.3h3.5l-7.3,17.8
	c-1,2.6-2.8,3.4-5.2,3.4c-0.5,0-1.4,0-1.8-0.2l0.5-2.9L268.6,169.8z M282.4,11.5h2.7v8.4h1.1v-8.4h2.7v-1h-6.5L282.4,11.5
	L282.4,11.5z M295.7,17.1c-0.1,0.3-0.3,0.6-0.4,1.2l0,0c0-0.3-0.2-0.6-0.4-1.1l-2.9-6.6h-1.4V20h1.1v-6.3c0-0.8,0-1.5,0-1.8l0,0
	c0,0.4,0.2,0.7,0.3,1l3.2,7.2h0.5l3.2-7.3c0-0.2,0.2-0.5,0.3-0.9l0,0c0,0.7,0,1.3,0,1.8V20h1.1v-9.4h-1.4l-3,6.5H295.7z M181.8,52.5
	c-7.7,0-13.4,2.6-13.4,9.1c0,16.8,48.5,7.7,48.3,40.8c0,18.7-16.6,27.1-35,27.1s-27.6-4.5-36.7-12.7l7-14.1
	c7.9,7,20.6,11.3,30.5,11.3s14.9-2.9,14.9-9.8c0-18.7-48-8.2-47.8-41.1c0-18.5,16.1-26.4,33.6-26.4s23.7,3.4,31.9,9.3l-7.2,14.6
	c-8.1-5-18.2-8.1-26.2-8.1L181.8,52.5z M253.9,40.3v-25h-19.5v83.8c0,19.9,11.7,29.8,26.1,29.8c14.4,0,14.7-2.4,21.9-6.7l-5-15.1
	c-5.3,2.7-9.8,3.9-13.4,3.9c-6.5,0-10.1-4.6-10.1-15.4V55h17.3V40.3L253.9,40.3L253.9,40.3z M36.8,40.3H19.5V29.5
	c0-8.6,5.7-12.3,12.3-12.3s8.7,1.5,12.5,4.3l7.5-15.1C46.1,2.1,38.7,0,31.4,0C15.6,0,0,10.1,0,31.4v96.7h19.5V55h17.3V40.3z
	 M86.5,129.4c-12.8,0-23.7-4.4-32.3-13.1c-8.8-8.8-13.3-19.8-13.3-32.5S45.3,60.1,54,51.5c8.8-8.8,19.8-13.3,32.5-13.3
	s19.5,3,27.3,9v-7.8h17v88.8h-17v-7.6c-7.8,5.9-16.9,8.9-27.3,8.9V129.4z M86.5,54.9c-8.1,0-14.7,2.7-20.3,8.3
	c-5.7,5.7-8.5,12.4-8.5,20.5s2.8,14.6,8.5,20.3c5.7,5.7,12.4,8.5,20.3,8.5s14.7-2.7,20.3-8.3c5.7-5.7,8.5-12.4,8.5-20.5
	s-2.8-14.6-8.5-20.3S94.4,54.9,86.5,54.9z"/>
</svg>
